<?xml version="1.0" encoding="UTF-8" standalone="no"?>
<!-- Created with Inkscape (http://www.inkscape.org/) -->

<svg
        xmlns:dc="http://purl.org/dc/elements/1.1/"
        xmlns:cc="http://creativecommons.org/ns#"
        xmlns:rdf="http://www.w3.org/1999/02/22-rdf-syntax-ns#"
        xmlns:sodipodi="http://sodipodi.sourceforge.net/DTD/sodipodi-0.dtd"
        xmlns:inkscape="http://www.inkscape.org/namespaces/inkscape"
        xmlns="http://www.w3.org/2000/svg"
        id="svg2"
        version="1.1"
        inkscape:version="0.91 r13725"
        xml:space="preserve"
        width="145.39125"
        height="244.655"
        viewBox="0 0 145.39125 244.655"
        sodipodi:docname="etat-vaud-logo.svg"><metadata
     id="metadata8"><rdf:RDF><cc:Work
         rdf:about=""><dc:format>image/svg+xml</dc:format><dc:type
        rdf:resource="http://purl.org/dc/dcmitype/StillImage"/><dc:title></dc:title></cc:Work></rdf:RDF></metadata>
    <defs
            id="defs6"><clipPath
       clipPathUnits="userSpaceOnUse"
       id="clipPath18"><path
         d="m 0,0 0,8419 5950,0 L 5950,0 0,0 Z"
         id="path20"
         inkscape:connector-curvature="0" /></clipPath>
        <clipPath
                clipPathUnits="userSpaceOnUse"
                id="clipPath28"><path
         d="m 447.98,5161.46 1237.8,0 0,2003.61 -1237.8,0 0,-2003.61 z"
         id="path30"
         inkscape:connector-curvature="0" /></clipPath>
        <clipPath
                clipPathUnits="userSpaceOnUse"
                id="clipPath94"><path
         d="m 4480.58,3347.85 978.617,0 0,360.98 -978.617,0 0,-360.98 z"
         id="path96"
         inkscape:connector-curvature="0" /></clipPath>
        <clipPath
                clipPathUnits="userSpaceOnUse"
                id="clipPath158"><path
         d="m 4452.23,2031.1 581.57,0 0,978.617 -581.57,0 0,-978.617 z"
         id="path160"
         inkscape:connector-curvature="0" /></clipPath>
        <clipPath
                clipPathUnits="userSpaceOnUse"
                id="clipPath234"><path
         d="m 1297.04,1986.14 388.73,0 0,1023.59 -388.73,0 0,-1023.59 z"
         id="path236"
         inkscape:connector-curvature="0" /></clipPath>
        <clipPath
                clipPathUnits="userSpaceOnUse"
                id="clipPath298"><path
         d="m 1389.44,1087.71 303.148,0 0,708.66 -303.148,0 0,-708.66 z"
         id="path300"
         inkscape:connector-curvature="0" /></clipPath>
        <clipPath
                clipPathUnits="userSpaceOnUse"
                id="clipPath362"><path
         d="m 974,1087.71 346.02,0 0,708.66 -346.02,0 0,-708.66 z"
         id="path364"
         inkscape:connector-curvature="0" /></clipPath>
        <clipPath
                clipPathUnits="userSpaceOnUse"
                id="clipPath426"><path
         d="m 1297.04,3525.58 440.961,0 0,1023.58 -440.961,0 0,-1023.58 z"
         id="path428"
         inkscape:connector-curvature="0" /></clipPath>
        <clipPath
                clipPathUnits="userSpaceOnUse"
                id="clipPath490"><path
         d="m 4954.46,3952.05 360.969,0 0,382.668 -360.969,0 0,-382.668 z"
         id="path492"
         inkscape:connector-curvature="0" /></clipPath>
        <clipPath
                clipPathUnits="userSpaceOnUse"
                id="clipPath534"><path
         d="m 532.25,2068.57 534.621,0 0,899.609 -534.621,0 0,-899.609 z"
         id="path536"
         inkscape:connector-curvature="0" /></clipPath>
        <clipPath
                clipPathUnits="userSpaceOnUse"
                id="clipPath600"><path
         d="m 4452.23,3784 364.301,0 0,765.16 -364.301,0 0,-765.16 z"
         id="path602"
         inkscape:connector-curvature="0" /></clipPath>
        <clipPath
                clipPathUnits="userSpaceOnUse"
                id="clipPath684"><path
         d="m 0,0 0,8419 5950,0 L 5950,0 0,0 Z"
         id="path686"
         inkscape:connector-curvature="0" /></clipPath>
        <clipPath
                clipPathUnits="userSpaceOnUse"
                id="clipPath700"><path
         d="m 453.539,7364.48 303.152,0 0,708.66 -303.152,0 0,-708.66 z"
         id="path702"
         inkscape:connector-curvature="0" /></clipPath></defs>
    <sodipodi:namedview
            pagecolor="#ffffff"
            bordercolor="#666666"
            borderopacity="1"
            objecttolerance="10"
            gridtolerance="10"
            guidetolerance="10"
            inkscape:pageopacity="0"
            inkscape:pageshadow="2"
            inkscape:window-width="1707"
            inkscape:window-height="897"
            id="namedview4"
            showgrid="false"
            fit-margin-top="0"
            fit-margin-left="0"
            fit-margin-right="0"
            fit-margin-bottom="0"
            inkscape:zoom="0.44845606"
            inkscape:cx="1103.3472"
            inkscape:cy="-1.9408648"
            inkscape:window-x="2552"
            inkscape:window-y="-8"
            inkscape:window-maximized="1"
            inkscape:current-layer="g12"/>
    <g
            id="g10"
            inkscape:groupmode="layer"
            inkscape:label="ink_ext_XXXXXX"
            transform="matrix(1.25,0,0,-1.25,-87.215718,938.00009)"><g
       id="g12"
       transform="scale(0.1,0.1)"><g
         id="g24"
         transform="translate(249.74574,338.94068)"><g
           id="g26"
           clip-path="url(#clipPath28)"><path
             d="m 628.109,5949.47 c 0,-23.11 -11.898,-40.17 -32.66,-46.83 -8.109,-2.6 -18.601,-3.89 -32.109,-3.89 -13.492,0 -24.371,1.31 -32.379,3.89 -20.75,6.66 -32.652,23.72 -32.652,46.83 0,17.74 7.902,32.91 21.14,40.57 1.391,0.84 2.871,1.2 4.801,1.2 4.219,0 7.539,-3.29 7.539,-7.53 0,-3.04 -1.488,-5.58 -4.461,-7.56 -8.801,-6.26 -12.918,-14.75 -12.918,-26.68 0,-15.52 7.528,-26.09 21.75,-30.59 6.949,-2.31 14.82,-3.25 27.18,-3.25 12.18,0 19.961,0.94 26.879,3.25 14.261,4.5 21.769,15.07 21.769,30.59 0,11.94 -4.097,20.43 -12.929,26.71 -2.918,1.92 -4.442,4.47 -4.442,7.53 0,4.24 3.332,7.53 7.563,7.53 1.918,0 3.418,-0.36 4.808,-1.22 13.211,-7.64 21.121,-22.81 21.121,-40.55"
             style="fill:#198829;fill-opacity:1;fill-rule:nonzero;stroke:none"
             id="path32"
             inkscape:connector-curvature="0" /><path
            d="m 568.32,6052.93 c 0,-23.17 6.692,-33.07 22.352,-33.07 17.832,0 21.582,15.62 21.582,28.74 0,20.72 -9.844,33.59 -25.66,33.59 l -18.141,0 m 59.66,-35.89 c 0,-26.16 -14.703,-43.06 -37.441,-43.06 -24.309,0 -37.692,16.92 -37.692,47.65 l 0,31.18 -8.796,0.12 c -21.321,0 -30.032,-8.77 -30.032,-30.27 0,-10.72 3.871,-21.04 7.481,-27.13 1.078,-1.64 1.719,-3.69 1.719,-5.58 0,-4.59 -3.2,-7.8 -7.789,-7.8 -2.461,0 -4.891,1.21 -6.68,3.31 -6.641,8.73 -10.57,22.91 -10.57,37.96 0,31.12 14.25,45.61 44.847,45.61 l 49.301,0 c 6.832,0 9.133,0.77 12.402,2.41 l 9.168,4.83 c 1.129,0.58 2.891,1.19 4.492,1.19 4.75,0 8.047,-3.52 8.047,-8.56 0,-3.35 -1.597,-5.85 -5.027,-7.86 l -8.441,-5.1 c 10.511,-9.89 15.011,-21.62 15.011,-38.9"
            style="fill:#198829;fill-opacity:1;fill-rule:nonzero;stroke:none"
            id="path34"
            inkscape:connector-curvature="0"/><path
            d="m 626.566,6215.94 c 0,-5.12 -3.378,-8.31 -8.808,-8.31 l -68.211,0 c -23.641,0 -35.141,-9.97 -35.141,-30.53 0,-18.73 13.391,-31.8 32.582,-31.8 l 70.77,0 c 5.43,0 8.808,-3.18 8.808,-8.32 0,-5.11 -3.378,-8.3 -8.808,-8.3 l -109.09,0 c -5.449,0 -8.828,3.19 -8.828,8.3 0,5.14 3.379,8.32 8.828,8.32 l 4.352,0 c -9.641,7.63 -14.723,19.6 -14.723,34.86 0,27.6 17.922,44.09 47.922,44.09 l 71.539,0 c 5.43,0 8.808,-3.19 8.808,-8.31"
            style="fill:#198829;fill-opacity:1;fill-rule:nonzero;stroke:none"
            id="path36"
            inkscape:connector-curvature="0"/><path
            d="m 626.32,6293.6 0,-3.33 c 0,-23.43 -9.562,-32.56 -34.101,-32.56 l -76.141,0 -0.129,-10.11 c 0,-4.88 -2.949,-8.04 -7.551,-8.04 -4.578,0 -7.539,3.16 -7.539,8.04 l 0,9.97 -31.269,0.14 c -5.461,0 -8.852,3.18 -8.852,8.29 0,5.13 3.391,8.31 8.852,8.31 l 31.148,0 0.121,19.54 c 0,4.89 2.961,8.06 7.539,8.06 4.602,0 7.551,-3.17 7.551,-8.06 l 0,-19.42 75.762,-0.12 c 14.699,0 18.5,3.97 18.5,19.29 0,5.12 3.238,8.55 8.059,8.55 4.82,0 8.05,-3.43 8.05,-8.55"
            style="fill:#198829;fill-opacity:1;fill-rule:nonzero;stroke:none"
            id="path38"
            inkscape:connector-curvature="0"/><path
            d="m 514.406,6363.59 c 0,-14.99 7.942,-26.24 21.774,-30.85 7.019,-2.34 14.558,-3.24 26.91,-3.24 12.527,0 20.129,0.9 27.129,3.24 13.847,4.61 21.769,15.86 21.769,30.85 0,15.39 -7.718,26.43 -21.761,31.11 -7.047,2.34 -14.649,3.26 -27.137,3.26 -12.313,0 -19.863,-0.92 -26.91,-3.26 -14.043,-4.68 -21.774,-15.72 -21.774,-31.11 m 113.703,0 c 0,-22.92 -11.902,-39.99 -32.652,-46.81 -9.437,-2.96 -18.82,-4.16 -32.367,-4.16 -13.391,0 -22.692,1.2 -32.113,4.15 -20.77,6.82 -32.668,23.89 -32.668,46.82 0,23.09 11.898,40.24 32.66,47.08 9.48,2.95 18.789,4.16 32.121,4.16 13.508,0 22.879,-1.21 32.348,-4.15 20.769,-6.85 32.671,-24 32.671,-47.09"
            style="fill:#198829;fill-opacity:1;fill-rule:nonzero;stroke:none"
            id="path40"
            inkscape:connector-curvature="0"/><path
            d="m 626.566,6525.3 c 0,-5.12 -3.378,-8.31 -8.808,-8.31 l -68.211,0 c -23.641,0 -35.141,-9.99 -35.141,-30.53 0,-18.72 13.391,-31.8 32.582,-31.8 l 70.77,0 c 5.43,0 8.808,-3.19 8.808,-8.32 0,-5.11 -3.378,-8.3 -8.808,-8.3 l -109.09,0 c -5.449,0 -8.828,3.19 -8.828,8.3 0,5.13 3.379,8.32 8.828,8.32 l 4.352,0 c -9.641,7.63 -14.723,19.6 -14.723,34.87 0,27.6 17.922,44.08 47.922,44.08 l 71.539,0 c 5.43,0 8.808,-3.19 8.808,-8.31"
            style="fill:#198829;fill-opacity:1;fill-rule:nonzero;stroke:none"
            id="path42"
            inkscape:connector-curvature="0"/><path
            d="m 514.406,6650.55 c 0,-14.73 7.473,-25.33 21.024,-29.83 7.207,-2.34 14.957,-3.25 27.66,-3.25 13.027,0 20.59,0.88 27.91,3.25 13.547,4.5 20.988,15.1 20.988,29.83 0,15.18 -6.988,25.59 -20.218,30.09 -6.403,1.95 -16.321,2.99 -28.68,2.99 -12.031,0 -22.141,-1.07 -28.461,-3 -13.211,-4.49 -20.223,-14.9 -20.223,-30.08 m 113.703,-2.3 c 0,-21.2 -11.05,-36.55 -31.121,-43.25 -10.351,-3.17 -19.851,-4.41 -33.898,-4.41 -13.711,0 -23.453,1.28 -33.641,4.41 -20.09,6.7 -31.14,22.05 -31.14,43.25 0,16.47 4.879,28.09 14.879,35.38 l -56.379,0 c -5.45,0 -8.832,3.18 -8.832,8.31 0,5.12 3.382,8.3 8.832,8.3 l 160.949,0 c 5.441,0 8.808,-3.18 8.808,-8.3 0,-5.13 -3.367,-8.31 -8.808,-8.31 l -4.551,0 c 10.02,-7.29 14.902,-18.92 14.902,-35.38"
            style="fill:#198829;fill-opacity:1;fill-rule:nonzero;stroke:none"
            id="path44"
            inkscape:connector-curvature="0"/><path
            d="m 513.895,6773.67 c 0,-15.49 7.82,-26.54 22.031,-31.1 4.84,-1.54 10.07,-2.22 16.929,-2.22 l 0.11,66.79 c -6.969,0.12 -12.199,-0.57 -17.039,-2.11 -14.211,-4.57 -22.031,-15.7 -22.031,-31.36 m 114.218,1.54 c 0,-24.21 -11.386,-40.76 -32.91,-47.84 -8.449,-2.8 -17.449,-3.91 -32.117,-3.91 -14.402,0 -23.402,1.11 -32.109,3.91 -20.774,6.74 -32.672,23.63 -32.672,46.3 0,22.85 11.898,39.81 32.66,46.56 7.988,2.66 17.398,3.91 29.558,3.91 4.602,0 7.801,-3.21 7.801,-7.8 l 0,-75.88 c 10.332,-0.11 15.18,0.46 20.891,2.36 14.898,4.97 22.781,16.44 22.781,33.14 0,13.31 -4,22.86 -13.371,31.97 -1.949,1.96 -2.98,4.07 -2.98,6.11 0,4.31 3.128,7.55 7.289,7.55 2.113,0 3.941,-0.63 5.48,-1.86 12.691,-10.03 19.699,-25.84 19.699,-44.52"
            style="fill:#198829;fill-opacity:1;fill-rule:nonzero;stroke:none"
            id="path46"
            inkscape:connector-curvature="0"/><path
            d="M 1018.91,6019.58 717.504,5903.72 c -4.391,-1.48 -7.34,-2.21 -10.988,-2.21 -9.539,0 -19.071,6.6 -19.071,19.8 0,10.26 6.602,16.13 14.66,19.08 l 275.739,105.59 0,0.73 -275.739,103.41 c -8.058,2.92 -14.66,8.79 -14.66,19.06 0,13.2 9.532,19.8 19.071,19.8 3.648,0 6.597,-0.72 10.988,-2.2 l 301.406,-115.86 c 18.34,-6.6 24.2,-13.2 24.2,-25.68 0,-12.46 -5.86,-19.07 -24.2,-25.66"
            style="fill:#198829;fill-opacity:1;fill-rule:nonzero;stroke:none"
            id="path48"
            inkscape:connector-curvature="0"/><path
            d="m 932.387,6433.62 -52.071,0 c -2.929,0 -4.41,-1.46 -4.41,-4.39 l 0,-83.6 c 0,-69.68 21.27,-99.01 68.199,-99.01 43.282,0 66.005,30.07 66.005,86.52 0,60.14 -29.333,100.48 -77.723,100.48 m 91.663,62.34 c 11,0 19.07,-8.07 19.07,-20.55 0,-8.06 -3.67,-13.93 -12.48,-19.05 l -27.86,-16.86 0,-1.48 c 28.61,-25.67 44.74,-56.47 44.74,-111.47 0,-67.46 -36.67,-119.53 -103.415,-119.53 -68.917,0 -104.128,48.39 -104.128,132.73 l 0,89.48 c 0,2.93 -1.461,4.39 -4.391,4.39 l -24.938,0 c -57.941,0 -90.21,-22 -90.21,-90.92 0,-30.08 10.269,-60.15 22.007,-79.94 2.934,-4.41 4.391,-9.55 4.391,-13.94 0,-11.02 -7.328,-18.32 -18.34,-18.32 -5.848,0 -11.719,2.93 -16.117,8.05 -16.133,21.27 -29.344,58.66 -29.344,106.33 0,86.55 38.871,126.88 124.672,126.88 l 141.539,0 c 19.813,0 27.152,2.2 37.391,7.33 l 26.413,13.93 c 2.93,1.46 7.33,2.94 11,2.94"
            style="fill:#198829;fill-opacity:1;fill-rule:nonzero;stroke:none"
            id="path50"
            inkscape:connector-curvature="0"/><path
            d="m 1021.86,6783.39 -24.215,0 0,-0.73 c 31.535,-19.79 49.875,-52.79 49.875,-101.93 0,-77.02 -48.407,-121 -133.465,-121 l -205.34,0 c -13.93,0 -21.27,8.06 -21.27,19.79 0,11.74 7.34,19.81 21.27,19.81 l 195.789,0 c 69.68,0 104.876,29.33 104.876,90.19 0,52.82 -37.396,93.87 -97.525,93.87 l -203.14,0 c -13.93,0 -21.27,8.07 -21.27,19.81 0,11.74 7.34,19.81 21.27,19.81 l 313.145,0 c 13.91,0 21.25,-8.07 21.25,-19.81 0,-11.74 -7.34,-19.81 -21.25,-19.81"
            style="fill:#198829;fill-opacity:1;fill-rule:nonzero;stroke:none"
            id="path52"
            inkscape:connector-curvature="0"/><path
            d="m 948.516,7116.25 c -19.059,5.86 -48.399,8.79 -83.598,8.79 -34.461,0 -63.813,-2.93 -82.871,-8.79 -41.07,-13.94 -60.871,-46.21 -60.871,-90.21 0,-44.73 23.469,-76.27 63.07,-89.47 22.738,-7.33 46.211,-9.53 80.672,-9.53 35.199,0 58.656,2.2 81.387,9.53 39.613,13.2 63.075,44.74 63.075,89.47 0,44 -19.794,76.27 -60.864,90.21 m 73.344,8.79 -25.672,0 0,-0.73 c 30.062,-16.86 51.332,-47.66 51.332,-104.86 0,-59.41 -31.54,-101.94 -86.536,-120.28 -28.597,-8.8 -55.738,-12.45 -96.066,-12.45 -39.602,0 -66.742,3.65 -95.344,12.45 -55,18.34 -86.539,60.87 -86.539,120.28 0,57.2 21.27,88 51.34,104.86 l 0,0.73 -174.527,0 c -13.953,0 -21.274,8.07 -21.274,19.81 0,11.73 7.321,19.79 21.274,19.79 l 462.012,0 c 13.92,0 21.26,-8.06 21.26,-19.79 0,-11.74 -7.34,-19.81 -21.26,-19.81"
            style="fill:#198829;fill-opacity:1;fill-rule:nonzero;stroke:none"
            id="path54"
            inkscape:connector-curvature="0"/><path
            d="m 1028.18,5772.66 c -1.09,-48.9 -4.07,-93.61 -8.85,-132.83 -2.5,-19.8 -6.31,-40.12 -11.37,-60.46 l -466.487,0 c -5.078,20.58 -8.778,40.43 -11.278,60.49 -6.39,49.43 -8.652,99.5 -9.422,132.81 -0.55,23.51 -0.468,42.22 -0.339,52.52 l 507.976,0 c 0.14,-10.31 0.24,-29.03 -0.23,-52.53 m -36.645,-247.09 -26.012,35.8 37.637,0 c -3.418,-12.01 -7.336,-23.94 -11.625,-35.8 m -321.39,35.8 185.46,-255.26 c -5.921,-6.72 -12.042,-13.46 -18.32,-20.23 l -200.152,275.49 m 79.922,0 163.789,-225.43 c -5.699,-7.02 -11.578,-14.06 -17.66,-21.11 l -179.129,246.54 m 79.918,0 141.07,-194.17 c -5.43,-7.37 -11.07,-14.75 -16.91,-22.15 l -157.168,216.32 m 79.918,0 117.121,-161.22 c -5.109,-7.78 -10.461,-15.57 -16.02,-23.37 l -134.109,184.59 m 79.918,0 91.723,-126.24 c -4.75,-8.28 -9.743,-16.56 -14.973,-24.83 l -109.75,151.07 m 79.91,0 64.539,-88.83 c -4.308,-8.94 -8.879,-17.81 -13.679,-26.59 l -83.86,115.42 m 79.91,0 35.192,-48.43 c -3.762,-9.65 -7.801,-19.23 -12.121,-28.73 l -56.071,77.16 m -107.949,-303.41 -220.441,303.41 33.011,0 206.219,-283.84 c -1.508,-1.61 -3,-3.2 -4.539,-4.8 -5.16,-5.28 -9.871,-10.2 -14.25,-14.77 m -20.898,-21.21 c -2.512,-2.38 -4.621,-4.22 -6.461,-5.7 l -235.032,323.49 c -0.679,2.29 -1.398,4.55 -2.039,6.83 l 30.09,0 226.418,-311.64 c -4.797,-4.95 -9.148,-9.38 -12.976,-12.98 m -55,25.16 c -3.223,3.39 -6.614,6.98 -10.223,10.76 -56.258,58.44 -98.918,114.81 -130.43,172.33 -13.199,24.08 -24.539,48.85 -33.961,74.05 l 212.411,-292.36 c -2.54,1.2 -6.661,3.96 -13.227,10.13 -6.773,6.28 -15.023,15 -24.57,25.09 m 311.484,572.52 c -0.12,4.87 -4.12,8.76 -9,8.76 l -525.668,0 c -4.867,0 -8.859,-3.89 -8.988,-8.76 -0.008,-0.24 -0.668,-25.49 0.191,-62.18 0.778,-33.73 3.07,-84.49 9.559,-134.65 2.398,-19.33 5.961,-38.5 10.672,-58.23 l -0.18,0 2.918,-11.23 c 0,-0.01 0,-0.02 0,-0.03 0,0 0.012,0 0.012,-0.01 11.707,-45.16 29.398,-89.48 52.558,-131.75 32.289,-58.93 75.871,-116.55 133.219,-176.14 3.57,-3.73 6.941,-7.29 10.152,-10.68 9.758,-10.32 18.2,-19.23 25.36,-25.87 11.238,-10.56 19.34,-15.28 27.09,-15.79 l 0.589,-0.05 0.59,0.05 c 7.75,0.51 15.52,5.09 26.801,15.8 5.988,5.63 12.879,12.82 20.848,21.13 4.531,4.72 9.441,9.85 14.882,15.41 57.329,59.94 100.829,117.55 132.977,176.13 23.273,42.33 41.048,86.66 52.828,131.76 l 2.95,11.27 -0.18,0 c 4.7,19.59 8.36,39.12 10.77,58.25 4.85,39.86 7.87,85.16 8.98,134.66 0.73,36.67 0.09,61.9 0.07,62.15"
            style="fill:#198829;fill-opacity:1;fill-rule:nonzero;stroke:none"
            id="path56"
            inkscape:connector-curvature="0"/><path
            d="m 614.055,5784.43 c 0,2.47 1.48,3.96 3.629,3.96 2.152,0 3.711,-1.49 3.711,-3.96 l 0,-45.21 c 0,-0.33 0.168,-0.5 0.5,-0.5 l 24.339,0 c 2.231,0 3.629,-1.49 3.629,-3.38 0,-1.98 -1.398,-3.47 -3.629,-3.47 l -28.629,0 c -2.23,0 -3.55,1.4 -3.55,3.63"
            style="fill:#198829;fill-opacity:1;fill-rule:nonzero;stroke:none"
            id="path58"
            inkscape:connector-curvature="0"/><path
            d="m 663.387,5784.43 c 0,2.47 1.48,3.96 3.711,3.96 2.148,0 3.629,-1.49 3.629,-3.96 l 0,-49.01 c 0,-2.47 -1.481,-3.96 -3.629,-3.96 -2.231,0 -3.711,1.49 -3.711,3.96"
            style="fill:#198829;fill-opacity:1;fill-rule:nonzero;stroke:none"
            id="path60"
            inkscape:connector-curvature="0"/><path
            d="m 697.379,5738.55 13.117,0 c 6.684,0 10.313,3.63 10.313,9.24 0,5.53 -3.629,9.24 -10.313,9.24 l -13.117,0 c -0.332,0 -0.492,-0.16 -0.492,-0.49 l 0,-17.5 c 0,-0.32 0.16,-0.49 0.492,-0.49 m 12.711,25.17 c 6.187,0 9.816,3.54 9.816,8.75 0,5.35 -3.629,8.82 -9.816,8.82 l -12.711,0 c -0.332,0 -0.492,-0.17 -0.492,-0.5 l 0,-16.58 c 0,-0.33 0.16,-0.49 0.492,-0.49 m -7.84,20.95 c 0,1.98 1.238,3.3 3.301,3.3 l 17.406,0 c 11.223,0 16.922,-5.77 16.922,-14.69 0,-6.51 -2.969,-10.56 -7.59,-12.29 l 0,-0.16 c 4.039,-1.07 8.578,-5.61 8.578,-12.96 0,-10.56 -6.769,-16.01 -18.148,-16.01 l -17.168,0 c -2.063,0 -3.301,1.25 -3.301,3.3"
            style="fill:#198829;fill-opacity:1;fill-rule:nonzero;stroke:none"
            id="path62"
            inkscape:connector-curvature="0"/><path
            d="m 744.32,5784.68 c 0,1.98 1.239,3.3 3.297,3.3 l 28.883,0 c 2.23,0 3.629,-1.48 3.629,-3.39 0,-1.97 -1.399,-3.46 -3.629,-3.46 l -24.34,0 c -0.332,0 -0.5,-0.17 -0.5,-0.49 l 0,-16.5 c 0,-0.34 0.168,-0.5 0.5,-0.5 l 20.301,0 c 2.219,0 3.629,-1.48 3.629,-3.39 0,-1.97 -1.41,-3.46 -3.629,-3.46 l -20.301,0 c -0.332,0 -0.5,-0.16 -0.5,-0.49 l 0,-17.09 c 0,-0.32 0.168,-0.5 0.5,-0.5 l 24.34,0 c 2.23,0 3.629,-1.48 3.629,-3.37 0,-1.98 -1.399,-3.47 -3.629,-3.47 l -28.883,0 c -2.058,0 -3.297,1.31 -3.297,3.29"
            style="fill:#198829;fill-opacity:1;fill-rule:nonzero;stroke:none"
            id="path64"
            inkscape:connector-curvature="0"/><path
            d="m 827.07,5771.8 c 0,5.86 -3.882,9.33 -10.402,9.33 l -13.109,0 c -0.329,0 -0.5,-0.17 -0.5,-0.49 l 0,-17.66 c 0,-0.34 0.171,-0.5 0.5,-0.5 l 13.109,0 c 6.52,0 10.402,3.47 10.402,9.32 m -31.351,-36.39 0,49.27 c 0,1.98 1.23,3.3 3.301,3.3 l 17.57,0 c 10.898,0 17.738,-6.35 17.738,-16.18 0,-7.5 -3.961,-12.94 -10.64,-15.1 l 10.07,-19.79 c 0.32,-0.68 0.492,-1.25 0.492,-1.98 0,-1.82 -1.32,-3.48 -3.551,-3.48 -1.48,0 -2.64,0.75 -3.539,2.32 l -11.062,21.87 -12.539,0 c -0.329,0 -0.5,-0.18 -0.5,-0.5 l 0,-19.73 c 0,-2.46 -1.481,-3.96 -3.629,-3.96 -2.231,0 -3.711,1.5 -3.711,3.96"
            style="fill:#198829;fill-opacity:1;fill-rule:nonzero;stroke:none"
            id="path66"
            inkscape:connector-curvature="0"/><path
            d="m 883.5,5787.98 c 2.23,0 3.629,-1.48 3.629,-3.46 0,-1.91 -1.399,-3.39 -3.629,-3.39 l -12.949,0 c -0.332,0 -0.5,-0.17 -0.5,-0.49 l 0,-45.23 c 0,-2.46 -1.481,-3.96 -3.633,-3.96 -2.219,0 -3.707,1.5 -3.707,3.96 l 0,45.23 c 0,0.32 -0.16,0.49 -0.492,0.49 l -12.961,0 c -2.219,0 -3.629,1.48 -3.629,3.39 0,1.98 1.41,3.46 3.629,3.46"
            style="fill:#198829;fill-opacity:1;fill-rule:nonzero;stroke:none"
            id="path68"
            inkscape:connector-curvature="0"/><path
            d="m 921.199,5805.3 c 0.571,0.66 1.242,1.08 2.231,1.08 1.57,0 2.812,-1.16 2.812,-2.73 0,-0.82 -0.332,-1.57 -0.832,-2.15 l -5.687,-6.27 c -0.75,-0.82 -1.493,-1.23 -2.481,-1.23 -1.41,0 -2.64,1.15 -2.64,2.64 0,0.82 0.328,1.56 0.898,2.24 m -15.09,-14.2 c 0,1.97 1.231,3.29 3.301,3.29 l 28.871,0 c 2.231,0 3.641,-1.48 3.641,-3.38 0,-1.98 -1.41,-3.46 -3.641,-3.46 l -24.332,0 c -0.328,0 -0.5,-0.17 -0.5,-0.5 l 0,-16.5 c 0,-0.33 0.172,-0.5 0.5,-0.5 l 20.293,0 c 2.227,0 3.637,-1.48 3.637,-3.38 0,-1.98 -1.41,-3.46 -3.637,-3.46 l -20.293,0 c -0.328,0 -0.5,-0.16 -0.5,-0.5 l 0,-17.08 c 0,-0.33 0.172,-0.5 0.5,-0.5 l 24.332,0 c 2.231,0 3.641,-1.48 3.641,-3.38 0,-1.97 -1.41,-3.47 -3.641,-3.47 l -28.871,0 c -2.07,0 -3.301,1.32 -3.301,3.3"
            style="fill:#198829;fill-opacity:1;fill-rule:nonzero;stroke:none"
            id="path70"
            inkscape:connector-curvature="0"/><path
            d="m 744.313,5713.54 c 0,1.34 0.839,2.25 2.25,2.25 l 20.109,0 c 1.519,0 2.48,-1.24 2.48,-2.52 0,-1.36 -0.961,-2.59 -2.48,-2.59 l -16.59,0 c -0.23,0 -0.34,-0.11 -0.34,-0.32 l 0,-9.77 c 0,-0.23 0.11,-0.34 0.34,-0.34 l 13.832,0 c 1.527,0 2.481,-1.23 2.481,-2.52 0,-1.35 -0.954,-2.57 -2.481,-2.57 l -13.832,0 c -0.23,0 -0.34,-0.11 -0.34,-0.34 l 0,-10.14 c 0,-0.23 0.11,-0.34 0.34,-0.34 l 16.59,0 c 1.519,0 2.48,-1.23 2.48,-2.53 0,-1.36 -0.961,-2.58 -2.48,-2.58 l -20.109,0 c -1.411,0 -2.25,0.91 -2.25,2.25"
            style="fill:#198829;fill-opacity:1;fill-rule:nonzero;stroke:none"
            id="path72"
            inkscape:connector-curvature="0"/><path
            d="m 804.016,5715.79 c 1.519,0 2.691,-1.24 2.691,-2.59 0,-1.29 -1.172,-2.52 -2.691,-2.52 l -8.828,0 c -0.231,0 -0.34,-0.11 -0.34,-0.32 l 0,-28.5 c 0,-1.68 -1.219,-2.91 -2.692,-2.91 -1.508,0 -2.738,1.23 -2.738,2.91 l 0,28.5 c 0,0.21 -0.109,0.32 -0.332,0.32 l -8.84,0 c -1.519,0 -2.687,1.23 -2.687,2.52 0,1.35 1.168,2.59 2.687,2.59"
            style="fill:#198829;fill-opacity:1;fill-rule:nonzero;stroke:none"
            id="path74"
            inkscape:connector-curvature="0"/><path
            d="m 674.445,5646.63 c 0,6.1 -4.039,9.9 -10.968,9.9 l -12.551,0 c -0.328,0 -0.488,-0.17 -0.488,-0.5 l 0,-18.81 c 0,-0.33 0.16,-0.49 0.488,-0.49 l 12.551,0 c 6.929,0 10.968,3.79 10.968,9.9 m -31.347,13.45 c 0,1.98 1.226,3.3 3.297,3.3 l 17.32,0 c 11.223,0 17.992,-6.77 17.992,-16.75 0,-9.99 -6.769,-16.75 -17.992,-16.75 l -12.789,0 c -0.328,0 -0.488,-0.17 -0.488,-0.5 l 0,-18.56 c 0,-2.48 -1.493,-3.96 -3.633,-3.96 -2.231,0 -3.707,1.48 -3.707,3.96"
            style="fill:#198829;fill-opacity:1;fill-rule:nonzero;stroke:none"
            id="path76"
            inkscape:connector-curvature="0"/><path
            d="m 718.75,5627.07 -8.91,25.5 -0.25,0 -9.082,-25.5 m -12.871,-15.18 17.25,47.77 c 0.91,2.64 2.312,4.13 4.781,4.13 2.48,0 4.051,-1.49 4.949,-4.13 l 17,-47.77 c 0.172,-0.5 0.332,-1.07 0.332,-1.64 0,-2.07 -1.57,-3.39 -3.461,-3.39 -1.648,0 -2.968,0.91 -3.55,2.64 l -3.801,10.8 -23.02,0 -3.789,-10.8 c -0.578,-1.73 -1.898,-2.64 -3.551,-2.64 -1.898,0 -3.468,1.32 -3.468,3.39 0,0.57 0.168,1.14 0.328,1.64"
            style="fill:#198829;fill-opacity:1;fill-rule:nonzero;stroke:none"
            id="path78"
            inkscape:connector-curvature="0"/><path
            d="m 772.457,5663.38 c 2.231,0 3.629,-1.49 3.629,-3.46 0,-1.91 -1.398,-3.39 -3.629,-3.39 l -12.949,0 c -0.332,0 -0.5,-0.16 -0.5,-0.49 l 0,-45.22 c 0,-2.48 -1.481,-3.96 -3.629,-3.96 -2.231,0 -3.711,1.48 -3.711,3.96 l 0,45.22 c 0,0.33 -0.16,0.49 -0.492,0.49 l -12.957,0 c -2.231,0 -3.633,1.48 -3.633,3.39 0,1.97 1.402,3.46 3.633,3.46"
            style="fill:#198829;fill-opacity:1;fill-rule:nonzero;stroke:none"
            id="path80"
            inkscape:connector-curvature="0"/><path
            d="m 820.715,5647.2 c 0,5.86 -3.867,9.33 -10.391,9.33 l -13.117,0 c -0.332,0 -0.5,-0.17 -0.5,-0.5 l 0,-17.66 c 0,-0.33 0.168,-0.49 0.5,-0.49 l 13.117,0 c 6.524,0 10.391,3.47 10.391,9.32 m -31.348,-36.39 0,49.26 c 0,1.98 1.231,3.3 3.301,3.3 l 17.566,0 c 10.891,0 17.743,-6.35 17.743,-16.17 0,-7.51 -3.961,-12.95 -10.641,-15.1 l 10.07,-19.8 c 0.328,-0.66 0.489,-1.24 0.489,-1.98 0,-1.82 -1.321,-3.47 -3.547,-3.47 -1.481,0 -2.641,0.75 -3.551,2.31 l -11.051,21.87 -12.539,0 c -0.332,0 -0.5,-0.16 -0.5,-0.49 l 0,-19.73 c 0,-2.47 -1.492,-3.96 -3.633,-3.96 -2.226,0 -3.707,1.49 -3.707,3.96"
            style="fill:#198829;fill-opacity:1;fill-rule:nonzero;stroke:none"
            id="path82"
            inkscape:connector-curvature="0"/><path
            d="m 845.215,5659.83 c 0,2.47 1.488,3.96 3.711,3.96 2.148,0 3.64,-1.49 3.64,-3.96 l 0,-49.01 c 0,-2.47 -1.492,-3.96 -3.64,-3.96 -2.223,0 -3.711,1.49 -3.711,3.96"
            style="fill:#198829;fill-opacity:1;fill-rule:nonzero;stroke:none"
            id="path84"
            inkscape:connector-curvature="0"/><path
            d="m 871.367,5660.08 c 0,1.98 1.238,3.3 3.301,3.3 l 28.879,0 c 2.23,0 3.629,-1.49 3.629,-3.38 0,-1.99 -1.399,-3.47 -3.629,-3.47 l -24.34,0 c -0.328,0 -0.5,-0.16 -0.5,-0.49 l 0,-16.51 c 0,-0.33 0.172,-0.49 0.5,-0.49 l 20.301,0 c 2.219,0 3.629,-1.49 3.629,-3.38 0,-1.98 -1.41,-3.47 -3.629,-3.47 l -20.301,0 c -0.328,0 -0.5,-0.16 -0.5,-0.49 l 0,-17.08 c 0,-0.34 0.172,-0.5 0.5,-0.5 l 24.34,0 c 2.23,0 3.629,-1.49 3.629,-3.38 0,-1.98 -1.399,-3.47 -3.629,-3.47 l -28.879,0 c -2.063,0 -3.301,1.32 -3.301,3.3"
            style="fill:#198829;fill-opacity:1;fill-rule:nonzero;stroke:none"
            id="path86"
            inkscape:connector-curvature="0"/><path
            d="m 1602.11,5207.88 c -4.97,0 -9,4.03 -9,9 l 0,1939.18 c 0,4.98 4.03,9 9,9 4.97,0 9,-4.02 9,-9 l 0,-1939.18 c 0,-4.97 -4.03,-9 -9,-9"
            style="fill:#198829;fill-opacity:1;fill-rule:nonzero;stroke:none"
            id="path88"
            inkscape:connector-curvature="0"/></g></g></g></g></svg>